<svg width="16" height="16" xmlns="http://www.w3.org/2000/svg" version="1.1" xml:space="preserve">
 <g id="Layer_1">
  <title>Layer 1</title>
  <path stroke-width="0.25" id="svg_1" d="m9.28855,15.95356l0,0c-5.07367,0 -9.1875,-3.53913 -9.1875,-7.90625c0,-4.36656 4.11383,-7.90625 9.1875,-7.90625l0,0c-2.89148,1.86635 -4.59343,4.79567 -4.59343,7.90625s1.70195,6.03934 4.59343,7.90625z" stroke="#666666" fill="#cccccc"/>
  <path id="svg_2" d="m15.73344,7.89288l-2.13099,0.81638l0,-1.63189l2.13099,0.81551zm-1.54728,-4.02148l-0.97083,2.20049l-1.07135,-1.15458l2.04218,-1.04591zm-3.73397,-1.66537l0.75769,2.29526l-1.51579,0l0.7581,-2.29526zm-3.73438,1.66537l2.04299,1.04591l-1.07175,1.15458l-0.97124,-2.20049zm-1.54687,4.02148l2.13139,-0.81551l0,1.63189l-2.13139,-0.81638zm1.54687,4.02148l0.97124,-2.19962l1.07175,1.15415l-2.04299,1.04547l0,0zm3.73438,1.66667l-0.7581,-2.29569l1.51579,0l-0.75769,2.29569zm3.73397,-1.66667l-2.04258,-1.04504l1.07135,-1.15415l0.97124,2.19919zm-6.3744,-4.02148l0,0c0,-1.57016 1.18236,-2.84342 2.64083,-2.84342c1.45807,0 2.64083,1.27326 2.64083,2.84342c0,1.5706 -1.18276,2.84386 -2.64083,2.84386c-1.45887,0 -2.64083,-1.27326 -2.64083,-2.84386l0,0z" stroke-width="0.25" stroke="#dd9a35" fill="#edc91a"/>
 </g>
</svg>